<svg xmlns="http://www.w3.org/2000/svg" xmlns:xlink="http://www.w3.org/1999/xlink" version="1.1" x="0px" y="0px" viewBox="0 0 100 100" enable-background="new 0 0 100 100" xml:space="preserve"><path d="M96.365,33.549c-0.879-7.612-4.87-14.716-10.95-19.49c-5.946-4.669-13.423-6.712-21.095-5.75  c-5.369,0.782-9.977,2.719-13.721,5.766c-1.436-1.086-3.571-2.628-4.852-3.34C33.4,3.878,18.175,6.668,9.554,17.364  c-5.844,7.191-7.513,15.958-4.96,26.052c1.508,5.983,5.032,11.938,9.726,16.473c0.005,2.692,1.134,5.262,3.182,7.173  c1.52,1.42,3.39,2.295,5.281,2.521c0.289,2.074,1.276,4.094,2.717,5.417c1.435,1.418,3.35,2.283,5.38,2.481  c0.313,2.114,1.375,4.298,2.871,5.673c1.488,1.364,3.849,2.688,6.258,3.058c0.698,2.537,2.086,5.171,5.487,6.309  c0.525,0.176,1.642,0.483,3.028,0.483c1.678,0,3.751-0.45,5.646-2.129c0.033-0.029,0.064-0.06,0.096-0.091  c0.165-0.167,0.466-0.447,0.856-0.813c3.451-3.232,6.106-5.967,7.442-8.224c2.335,0.697,5.239,0.562,7.115-0.894  c2.308-1.651,3.228-4.042,3.229-6.355c2.239-0.019,4.545-0.957,5.935-2.326c1.466-1.445,2.406-3.797,2.304-6.067  c1.989-0.077,4.467-0.675,6.433-2.752c2.05-2.164,2.115-5.016,1.7-6.871C94.757,49.911,97.333,41.614,96.365,33.549z M18.322,59.95  l9.485-9.185c0.457-0.306,3.253-1.997,5.481,0.675c1.746,2.098,0.948,3.922,0.628,4.479l-10.065,9.719  c-1.232,0.032-2.55-0.501-3.62-1.5C19.021,63.009,18.347,61.512,18.322,59.95z M26.7,68.445l9.985-9.642  c0.66-0.352,3.277-1.59,4.837-0.049c1.624,1.606,1.362,3.795,1.165,4.69L32.014,73.513c-1.165,0.042-2.625-0.293-3.755-1.409  C27.346,71.265,26.735,69.782,26.7,68.445z M34.789,76.395l10.644-10.04c0.99-0.172,3.466-0.406,4.828,1.204  c0.939,1.112,0.884,3.04,0.727,4.102L40.8,82.269c-1.395-0.176-3.173-0.99-4.344-2.063C35.524,79.35,34.835,77.709,34.789,76.395z   M52.388,87.051c-0.401,0.376-0.718,0.673-0.912,0.865c-1.845,1.597-4.068,1.024-4.709,0.811c-1.325-0.443-2.302-1.28-2.957-3.816  l10.26-10.684c1.347-0.761,3.364,0.386,4.056,1.231c0.885,1.083,1.259,2.754,1.364,3.544C59.273,79.777,57.99,81.805,52.388,87.051z   M84.675,60.603c-1.617,1.707-3.979,1.629-5.29,1.416L61.542,44.018c-0.778-0.784-2.043-0.788-2.829-0.013  c-0.784,0.778-0.79,2.044-0.013,2.829l18.106,18.267c0.673,1.071,0.304,3.162-0.772,4.223c-0.996,0.983-3.429,1.583-4.551,0.852  c-0.007-0.004-0.015-0.005-0.021-0.01L53.143,51.392c-0.772-0.792-2.038-0.805-2.829-0.035c-0.791,0.771-0.806,2.038-0.035,2.828  l18.41,18.867c0.37,1.274,0.404,3.303-1.398,4.595c-0.813,0.629-2.667,0.647-3.948,0.142c-0.235-1.24-0.799-3.244-2.121-4.862  c-1.226-1.498-3.632-2.977-6.148-2.979c-0.064-1.568-0.469-3.443-1.757-4.969c-1.883-2.227-4.499-2.736-6.492-2.738  c0.03-1.862-0.432-4.294-2.49-6.329c-1.798-1.776-4.005-2.119-5.978-1.838c-0.012-1.603-0.522-3.423-1.995-5.191  c-3.611-4.333-8.701-3.058-11.061-1.238c-0.06,0.046-0.116,0.095-0.17,0.147l-8.757,8.479c-3.803-3.921-6.649-8.866-7.901-13.832  c-2.258-8.93-0.889-16.306,4.191-22.558c7.401-9.184,20.498-11.559,31.142-5.648c0.955,0.531,2.57,1.688,3.82,2.617L32.603,31.55  c-0.492,0.43-2.708,2.531-2.729,5.459c-0.009,1.292,0.428,3.218,2.563,5.059c5.019,4.324,12.581,3.81,17.979-1.226  c2.149-2.001,7.18-6.926,9.663-9.364l25.234,25.655C85.473,57.696,85.818,59.395,84.675,60.603z M86.906,53.048l-25.378-25.8  c-0.372-0.378-0.879-0.593-1.41-0.598h-0.016c-0.524,0-1.029,0.207-1.403,0.575c-0.082,0.08-8.202,8.075-11.01,10.69  c-3.881,3.619-9.197,4.09-12.641,1.122c-1.174-1.012-1.174-1.746-1.174-1.987c0-1.079,0.994-2.172,1.366-2.493  c0.04-0.033,0.078-0.068,0.115-0.104l16.7-16.344c3.349-3.124,7.668-5.089,12.803-5.837c6.561-0.823,12.986,0.929,18.087,4.933  c5.247,4.12,8.69,10.244,9.448,16.811C93.188,40.645,91.198,47.473,86.906,53.048z"/></svg>