<svg xmlns:x="http://ns.adobe.com/Extensibility/1.0/" xmlns:i="http://ns.adobe.com/AdobeIllustrator/10.0/" xmlns:graph="http://ns.adobe.com/Graphs/1.0/" xmlns="http://www.w3.org/2000/svg" xmlns:xlink="http://www.w3.org/1999/xlink" version="1.1" x="0px" y="0px" viewBox="0 0 32 32" style="enable-background:new 0 0 32 32;" xml:space="preserve">
<metadata><sfw xmlns="http://ns.adobe.com/SaveForWeb/1.0/"><slices/><sliceSourceBounds height="16392" width="16538" bottomLeftOrigin="true" y="-8501" x="-7891"/></sfw></metadata>
<g id="discover-projects">
	<g><rect x="23.685" y="23.982" transform="matrix(0.7071 0.7071 -0.7071 0.7071 25.8537 -12.4493)" width="8.537" height="2"/></g><g><path d="M20,25c-4.411,0-8-3.589-8-8s3.589-8,8-8s8,3.589,8,8S24.411,25,20,25z M20,11c-3.309,0-6,2.691-6,6s2.691,6,6,6    s6-2.691,6-6S23.309,11,20,11z"/></g><g><path d="M16.012,29.424l-12.52-12.52c-3.315-3.318-3.315-8.717,0-12.035c3.318-3.317,8.717-3.316,12.035,0L16,5.342l0.473-0.473    c3.319-3.317,8.72-3.316,12.035,0c3.315,3.318,3.315,8.717,0,12.035l-0.801,0.801l-1.414-1.414l0.801-0.801    c2.536-2.538,2.536-6.668,0-9.207c-2.537-2.537-6.668-2.538-9.207,0L16,8.17l-1.887-1.887c-2.539-2.537-6.67-2.538-9.207,0    c-2.536,2.539-2.536,6.669,0,9.207L16,26.583l3.293-3.292l1.414,1.414L16.012,29.424z"/></g>
</g>
</svg>