<svg xmlns="http://www.w3.org/2000/svg" viewBox="0 0 100 100"><path d="M96.365 33.549c-.879-7.612-4.87-14.716-10.95-19.49-5.946-4.669-13.423-6.712-21.095-5.75-5.369.782-9.977 2.719-13.721 5.766-1.436-1.086-3.571-2.628-4.852-3.34C33.4 3.878 18.175 6.668 9.554 17.364c-5.844 7.191-7.513 15.958-4.96 26.052 1.508 5.983 5.032 11.938 9.726 16.473.005 2.692 1.134 5.262 3.182 7.173 1.52 1.42 3.39 2.295 5.281 2.521.289 2.074 1.276 4.094 2.717 5.417 1.435 1.418 3.35 2.283 5.38 2.481.313 2.114 1.375 4.298 2.871 5.673 1.488 1.364 3.849 2.688 6.258 3.058.698 2.537 2.086 5.171 5.487 6.309a9.781 9.781 0 0 0 3.028.483c1.678 0 3.751-.45 5.646-2.129.033-.029.064-.06.096-.091.165-.167.466-.447.856-.813 3.451-3.232 6.106-5.967 7.442-8.224 2.335.697 5.239.562 7.115-.894 2.308-1.651 3.228-4.042 3.229-6.355 2.239-.019 4.545-.957 5.935-2.326 1.466-1.445 2.406-3.797 2.304-6.067 1.989-.077 4.467-.675 6.433-2.752 2.05-2.164 2.115-5.016 1.7-6.871 5.477-6.571 8.053-14.868 7.085-22.933zM18.322 59.95l9.485-9.185c.457-.306 3.253-1.997 5.481.675 1.746 2.098.948 3.922.628 4.479l-10.065 9.719c-1.232.032-2.55-.501-3.62-1.5-1.21-1.129-1.884-2.626-1.909-4.188zm8.378 8.495l9.985-9.642c.66-.352 3.277-1.59 4.837-.049 1.624 1.606 1.362 3.795 1.165 4.69L32.014 73.513c-1.165.042-2.625-.293-3.755-1.409-.913-.839-1.524-2.322-1.559-3.659zm8.089 7.95l10.644-10.04c.99-.172 3.466-.406 4.828 1.204.939 1.112.884 3.04.727 4.102L40.8 82.269c-1.395-.176-3.173-.99-4.344-2.063-.932-.856-1.621-2.497-1.667-3.811zm17.599 10.656c-.401.376-.718.673-.912.865-1.845 1.597-4.068 1.024-4.709.811-1.325-.443-2.302-1.28-2.957-3.816l10.26-10.684c1.347-.761 3.364.386 4.056 1.231.885 1.083 1.259 2.754 1.364 3.544-.217.775-1.5 2.803-7.102 8.049zm32.287-26.448c-1.617 1.707-3.979 1.629-5.29 1.416L61.542 44.018a2.004 2.004 0 0 0-2.829-.013 2.002 2.002 0 0 0-.013 2.829l18.106 18.267c.673 1.071.304 3.162-.772 4.223-.996.983-3.429 1.583-4.551.852-.007-.004-.015-.005-.021-.01L53.143 51.392a2 2 0 0 0-2.864 2.793l18.41 18.867c.37 1.274.404 3.303-1.398 4.595-.813.629-2.667.647-3.948.142-.235-1.24-.799-3.244-2.121-4.862-1.226-1.498-3.632-2.977-6.148-2.979-.064-1.568-.469-3.443-1.757-4.969-1.883-2.227-4.499-2.736-6.492-2.738.03-1.862-.432-4.294-2.49-6.329-1.798-1.776-4.005-2.119-5.978-1.838-.012-1.603-.522-3.423-1.995-5.191-3.611-4.333-8.701-3.058-11.061-1.238-.06.046-.116.095-.17.147l-8.757 8.479c-3.803-3.921-6.649-8.866-7.901-13.832-2.258-8.93-.889-16.306 4.191-22.558 7.401-9.184 20.498-11.559 31.142-5.648.955.531 2.57 1.688 3.82 2.617l-15.023 14.7c-.492.43-2.708 2.531-2.729 5.459-.009 1.292.428 3.218 2.563 5.059 5.019 4.324 12.581 3.81 17.979-1.226 2.149-2.001 7.18-6.926 9.663-9.364l25.234 25.655c.16.563.505 2.262-.638 3.47zm2.231-7.555l-25.378-25.8a2.004 2.004 0 0 0-1.41-.598h-.016c-.524 0-1.029.207-1.403.575-.082.08-8.202 8.075-11.01 10.69-3.881 3.619-9.197 4.09-12.641 1.122-1.174-1.012-1.174-1.746-1.174-1.987 0-1.079.994-2.172 1.366-2.493.04-.033.078-.068.115-.104l16.7-16.344c3.349-3.124 7.668-5.089 12.803-5.837 6.561-.823 12.986.929 18.087 4.933 5.247 4.12 8.69 10.244 9.448 16.811.795 6.629-1.195 13.457-5.487 19.032z"/></svg>