<svg xmlns="http://www.w3.org/2000/svg" viewBox="0 0 32 32"><path d="M25.644 21.256l6.036 6.037-1.414 1.414-6.037-6.037z"/><path d="M20 25c-4.411 0-8-3.589-8-8s3.589-8 8-8 8 3.589 8 8-3.589 8-8 8zm0-14c-3.309 0-6 2.691-6 6s2.691 6 6 6 6-2.691 6-6-2.691-6-6-6z"/><path d="M16.012 29.424l-12.52-12.52c-3.315-3.318-3.315-8.717 0-12.035 3.318-3.317 8.717-3.316 12.035 0l.473.473.473-.473c3.319-3.317 8.72-3.316 12.035 0 3.315 3.318 3.315 8.717 0 12.035l-.801.801-1.414-1.414.801-.801a6.522 6.522 0 0 0 0-9.207 6.52 6.52 0 0 0-9.207 0L16 8.17l-1.887-1.887c-2.539-2.537-6.67-2.538-9.207 0a6.522 6.522 0 0 0 0 9.207L16 26.583l3.293-3.292 1.414 1.414-4.695 4.719z"/></svg>