<svg xmlns="http://www.w3.org/2000/svg" viewBox="0 0 100 100"><path d="M50.9 58.5c0-11.5 8.7-21.1 19.9-22.4 1.3-.2 2.7-.4 4-.4 4.4.2 8.3 1.4 11.7 3.5 1.8-4.9 1.8-10-1.1-15.1-3.2-5.3-9.3-8.6-16.2-8.6-6.3 0-12.1 2.8-15.3 7.6l-3 4.2-2.8-4.2c-3.2-4.8-9-7.6-15.3-7.6-6.9 0-13 3.3-16.2 8.6-7 11.7 2.1 23.2 13.1 33.9 4.5 4.5 15.9 14.4 21.3 18.9 1.4-1.1 3.1-2.7 5.1-4.4-3.3-3.7-5.2-8.6-5.2-14zm10.5 19c-4.1 3.5-7.5 6.4-8.2 7l-2.3 2-2.1-2c-3.4-2.8-18.6-15.8-24.1-21.1-7.5-7.3-25.1-24.6-14.2-42.7C15 13.1 23.3 8.6 32.7 8.6c7 0 13.7 2.7 18.3 7.2 4.6-4.7 11.3-7.2 18.3-7.2 9.4 0 17.6 4.5 22.3 12.1 4.9 8.3 4 16.5.6 23.5C95.3 48 97 52.8 97 58c0 7.6-3.9 14.4-9.7 18.4l-.1.1c-3.8 2.9-8.5 4.6-13.6 4.6-4.6 0-8.7-1.3-12.2-3.6zm12.5-2.4c9.4 0 17-7.6 17-17 0-9.3-7.5-16.9-16.9-17h-.1c-9.3 0-17 7.6-17 17 0 9.3 7.5 16.9 16.8 17h.2z"/><path d="M73.4 55.7v-3.4c-.9.2-1.5.7-1.5 1.8 0 1 .7 1.5 1.5 1.6zm3.1 6.9c0-.4-.1-.7-.2-.9-.2-.5-.7-.8-1.3-1v3.7c.6 0 1.1-.4 1.3-1 .2-.3.2-.6.2-.8zm-3.1-13.9v-1.2c0-.5.3-.7.7-.7.6 0 .7.3.7.7v1.2c1.7 0 4.8.6 4.8 2.8 0 1-.8 1.9-1.8 1.9s-1.8-1-3-1v3.7c3 .9 6.1 2.2 6.1 5.9 0 4.2-3.4 6.1-6.1 6.3v1.2c0 .4-.3.7-.7.7-.6 0-.7-.3-.7-.7v-1c-1.8-.2-6.1-.6-6.1-3.1 0-1.2.9-2.2 1.9-2.2.9 0 2.2 1.2 4.2 1.2v-4.2c-4.5-1.3-6-3-6-5.4 0-3.5 2.7-5.8 6-6.1z"/><path d="M72.8 53.8v.3c-.1-.1-.1-.2 0-.3z"/></svg>